<mxfile host="app.diagrams.net" modified="2022-03-27T00:05:20.137Z" agent="5.0 (Windows NT 10.0; Win64; x64) AppleWebKit/537.36 (KHTML, like Gecko) Chrome/99.0.4844.74 Safari/537.36 Edg/99.0.1150.52" etag="_IjRfUULjZHK3vlqXcua" version="17.2.4" type="github">
  <diagram id="R6LKjHRkVj6gWCjwfnXa" name="Page-1">
    <mxGraphModel dx="1609" dy="468" grid="1" gridSize="10" guides="1" tooltips="1" connect="1" arrows="1" fold="1" page="1" pageScale="1" pageWidth="827" pageHeight="1169" math="0" shadow="0">
      <root>
        <mxCell id="0" />
        <mxCell id="1" parent="0" />
        <mxCell id="xEdestO7AOEsHorYzFaQ-1" value="用户属性数据" style="rounded=0;whiteSpace=wrap;html=1;fillColor=#eeeeee;strokeColor=#36393d;fontSize=16;fontFamily=Comic Sans MS;" parent="1" vertex="1">
          <mxGeometry x="-690" y="40" width="160" height="60" as="geometry" />
        </mxCell>
        <mxCell id="xEdestO7AOEsHorYzFaQ-2" value="用户行为数据" style="rounded=0;whiteSpace=wrap;html=1;fillColor=#ffcc99;strokeColor=#36393d;fontSize=16;fontFamily=Comic Sans MS;" parent="1" vertex="1">
          <mxGeometry x="-500" y="40" width="160" height="60" as="geometry" />
        </mxCell>
        <mxCell id="xEdestO7AOEsHorYzFaQ-3" value="终端APM数据" style="rounded=0;whiteSpace=wrap;html=1;fillColor=#cce5ff;strokeColor=#36393d;fontSize=16;fontFamily=Comic Sans MS;" parent="1" vertex="1">
          <mxGeometry x="70" y="40" width="160" height="60" as="geometry" />
        </mxCell>
        <mxCell id="xEdestO7AOEsHorYzFaQ-4" value="外部渠道数据" style="rounded=0;whiteSpace=wrap;html=1;fillColor=#ffcccc;strokeColor=#36393d;fontSize=16;fontFamily=Comic Sans MS;" parent="1" vertex="1">
          <mxGeometry x="260" y="40" width="160" height="60" as="geometry" />
        </mxCell>
        <mxCell id="xEdestO7AOEsHorYzFaQ-5" value="" style="rounded=1;whiteSpace=wrap;html=1;fontSize=16;dashed=1;fontFamily=Comic Sans MS;" parent="1" vertex="1">
          <mxGeometry x="-690" y="140" width="1660" height="250" as="geometry" />
        </mxCell>
        <mxCell id="xEdestO7AOEsHorYzFaQ-6" value="数&lt;br&gt;据&lt;br&gt;采&lt;br&gt;集&lt;br&gt;端" style="rounded=0;whiteSpace=wrap;html=1;fontSize=16;strokeWidth=0;strokeColor=none;fontFamily=Comic Sans MS;" parent="1" vertex="1">
          <mxGeometry x="-760" y="175" width="40" height="130" as="geometry" />
        </mxCell>
        <mxCell id="xEdestO7AOEsHorYzFaQ-8" value="移动底座" style="rounded=0;whiteSpace=wrap;html=1;dashed=1;fontSize=16;strokeWidth=0;fontFamily=Comic Sans MS;strokeColor=none;" parent="1" vertex="1">
          <mxGeometry x="-574" y="160" width="100" height="30" as="geometry" />
        </mxCell>
        <mxCell id="xEdestO7AOEsHorYzFaQ-9" value="" style="rounded=0;whiteSpace=wrap;html=1;dashed=1;fontSize=16;strokeWidth=1;fontFamily=Comic Sans MS;dashPattern=1 1;" parent="1" vertex="1">
          <mxGeometry x="-649" y="190" width="255" height="60" as="geometry" />
        </mxCell>
        <mxCell id="xEdestO7AOEsHorYzFaQ-10" value="Matrix" style="rounded=0;whiteSpace=wrap;html=1;dashed=1;fontSize=16;strokeWidth=0;fontFamily=Comic Sans MS;fillColor=#60a917;fontColor=#ffffff;strokeColor=#2D7600;" parent="1" vertex="1">
          <mxGeometry x="-640" y="205" width="60" height="30" as="geometry" />
        </mxCell>
        <mxCell id="xEdestO7AOEsHorYzFaQ-11" value="Sentry" style="rounded=0;whiteSpace=wrap;html=1;dashed=1;fontSize=16;strokeWidth=0;fontFamily=Comic Sans MS;fillColor=#0050ef;fontColor=#ffffff;strokeColor=#001DBC;" parent="1" vertex="1">
          <mxGeometry x="-566.5" y="205" width="60" height="30" as="geometry" />
        </mxCell>
        <mxCell id="xEdestO7AOEsHorYzFaQ-14" value="行为日志" style="rounded=0;whiteSpace=wrap;html=1;dashed=1;fontSize=16;strokeWidth=0;fontFamily=Comic Sans MS;fillColor=#60a917;fontColor=#ffffff;strokeColor=#2D7600;" parent="1" vertex="1">
          <mxGeometry x="-494" y="205" width="90" height="30" as="geometry" />
        </mxCell>
        <mxCell id="xEdestO7AOEsHorYzFaQ-15" value="H5轻应用框架&amp;amp;MDesign" style="rounded=0;whiteSpace=wrap;html=1;dashed=1;fontSize=16;strokeWidth=0;fontFamily=Comic Sans MS;strokeColor=none;" parent="1" vertex="1">
          <mxGeometry x="-327.5" y="160" width="190" height="30" as="geometry" />
        </mxCell>
        <mxCell id="xEdestO7AOEsHorYzFaQ-16" value="" style="rounded=0;whiteSpace=wrap;html=1;dashed=1;fontSize=16;strokeWidth=1;fontFamily=Comic Sans MS;dashPattern=1 1;" parent="1" vertex="1">
          <mxGeometry x="-360" y="190" width="330" height="60" as="geometry" />
        </mxCell>
        <mxCell id="xEdestO7AOEsHorYzFaQ-18" value="APM" style="rounded=0;whiteSpace=wrap;html=1;dashed=1;fontSize=16;strokeWidth=0;fontFamily=Comic Sans MS;fillColor=#60a917;fontColor=#ffffff;strokeColor=#2D7600;" parent="1" vertex="1">
          <mxGeometry x="-211" y="205" width="60" height="30" as="geometry" />
        </mxCell>
        <mxCell id="xEdestO7AOEsHorYzFaQ-19" value="行为上报" style="rounded=0;whiteSpace=wrap;html=1;dashed=1;fontSize=16;strokeWidth=0;fontFamily=Comic Sans MS;fillColor=#60a917;fontColor=#ffffff;strokeColor=#2D7600;" parent="1" vertex="1">
          <mxGeometry x="-135.5" y="205" width="90" height="30" as="geometry" />
        </mxCell>
        <mxCell id="xEdestO7AOEsHorYzFaQ-20" value="可视化 SDK 埋点" style="rounded=0;whiteSpace=wrap;html=1;dashed=1;fontSize=16;strokeWidth=0;fontFamily=Comic Sans MS;strokeColor=none;" parent="1" vertex="1">
          <mxGeometry x="282.5" y="160" width="190" height="30" as="geometry" />
        </mxCell>
        <mxCell id="xEdestO7AOEsHorYzFaQ-21" value="" style="rounded=0;whiteSpace=wrap;html=1;dashed=1;fontSize=16;strokeWidth=1;fontFamily=Comic Sans MS;dashPattern=1 1;" parent="1" vertex="1">
          <mxGeometry x="250" y="190" width="255" height="60" as="geometry" />
        </mxCell>
        <mxCell id="xEdestO7AOEsHorYzFaQ-24" value="行为数据" style="rounded=0;whiteSpace=wrap;html=1;dashed=1;fontSize=16;strokeWidth=0;fontFamily=Comic Sans MS;fillColor=#60a917;fontColor=#ffffff;strokeColor=#2D7600;" parent="1" vertex="1">
          <mxGeometry x="332.5" y="205" width="90" height="30" as="geometry" />
        </mxCell>
        <mxCell id="xEdestO7AOEsHorYzFaQ-25" value="A/B Test" style="rounded=0;whiteSpace=wrap;html=1;dashed=1;fontSize=16;strokeWidth=0;fontFamily=Comic Sans MS;strokeColor=none;" parent="1" vertex="1">
          <mxGeometry x="572.5" y="160" width="190" height="30" as="geometry" />
        </mxCell>
        <mxCell id="xEdestO7AOEsHorYzFaQ-26" value="" style="rounded=0;whiteSpace=wrap;html=1;dashed=1;fontSize=16;strokeWidth=1;fontFamily=Comic Sans MS;dashPattern=1 1;" parent="1" vertex="1">
          <mxGeometry x="540" y="190" width="255" height="60" as="geometry" />
        </mxCell>
        <mxCell id="xEdestO7AOEsHorYzFaQ-27" value="?" style="rounded=0;whiteSpace=wrap;html=1;dashed=1;fontSize=16;strokeWidth=0;fontFamily=Comic Sans MS;fillColor=#60a917;fontColor=#ffffff;strokeColor=#2D7600;" parent="1" vertex="1">
          <mxGeometry x="555" y="205" width="60" height="30" as="geometry" />
        </mxCell>
        <mxCell id="xEdestO7AOEsHorYzFaQ-28" value="?" style="rounded=0;whiteSpace=wrap;html=1;dashed=1;fontSize=16;strokeWidth=0;fontFamily=Comic Sans MS;fillColor=#60a917;fontColor=#ffffff;strokeColor=#2D7600;" parent="1" vertex="1">
          <mxGeometry x="625" y="205" width="60" height="30" as="geometry" />
        </mxCell>
        <mxCell id="xEdestO7AOEsHorYzFaQ-29" value="?" style="rounded=0;whiteSpace=wrap;html=1;dashed=1;fontSize=16;strokeWidth=0;fontFamily=Comic Sans MS;fillColor=#60a917;fontColor=#ffffff;strokeColor=#2D7600;" parent="1" vertex="1">
          <mxGeometry x="695" y="205" width="90" height="30" as="geometry" />
        </mxCell>
        <mxCell id="xEdestO7AOEsHorYzFaQ-30" value="" style="rounded=0;whiteSpace=wrap;html=1;dashed=1;dashPattern=1 1;fontFamily=Comic Sans MS;fontSize=16;strokeWidth=1;" parent="1" vertex="1">
          <mxGeometry x="-621.5" y="250" width="39" height="30" as="geometry" />
        </mxCell>
        <mxCell id="xEdestO7AOEsHorYzFaQ-34" value="" style="rounded=0;whiteSpace=wrap;html=1;dashed=1;dashPattern=1 1;fontFamily=Comic Sans MS;fontSize=16;strokeWidth=1;fillColor=#fad7ac;strokeColor=#b46504;" parent="1" vertex="1">
          <mxGeometry x="-582.5" y="250" width="39" height="30" as="geometry" />
        </mxCell>
        <mxCell id="xEdestO7AOEsHorYzFaQ-35" value="" style="rounded=0;whiteSpace=wrap;html=1;dashed=1;dashPattern=1 1;fontFamily=Comic Sans MS;fontSize=16;strokeWidth=1;fillColor=#bac8d3;strokeColor=#23445d;" parent="1" vertex="1">
          <mxGeometry x="-543.5" y="250" width="39" height="30" as="geometry" />
        </mxCell>
        <mxCell id="xEdestO7AOEsHorYzFaQ-36" value="" style="rounded=0;whiteSpace=wrap;html=1;dashed=1;dashPattern=1 1;fontFamily=Comic Sans MS;fontSize=16;strokeWidth=1;fillColor=#b1ddf0;strokeColor=#10739e;" parent="1" vertex="1">
          <mxGeometry x="-504.5" y="250" width="39" height="30" as="geometry" />
        </mxCell>
        <mxCell id="xEdestO7AOEsHorYzFaQ-41" value="" style="rounded=0;whiteSpace=wrap;html=1;dashed=1;dashPattern=1 1;fontFamily=Comic Sans MS;fontSize=16;strokeWidth=1;" parent="1" vertex="1">
          <mxGeometry x="-465.5" y="250" width="39" height="30" as="geometry" />
        </mxCell>
        <mxCell id="xEdestO7AOEsHorYzFaQ-42" value="终端性能数据" style="rounded=0;whiteSpace=wrap;html=1;fillColor=#cdeb8b;fontSize=16;fontFamily=Comic Sans MS;strokeColor=#36393d;" parent="1" vertex="1">
          <mxGeometry x="-120" y="40" width="160" height="60" as="geometry" />
        </mxCell>
        <mxCell id="xEdestO7AOEsHorYzFaQ-43" value="" style="rounded=0;whiteSpace=wrap;html=1;dashed=1;dashPattern=1 1;fontFamily=Comic Sans MS;fontSize=16;strokeWidth=1;" parent="1" vertex="1">
          <mxGeometry x="-342.5" y="250" width="39" height="30" as="geometry" />
        </mxCell>
        <mxCell id="xEdestO7AOEsHorYzFaQ-44" value="" style="rounded=0;whiteSpace=wrap;html=1;dashed=1;dashPattern=1 1;fontFamily=Comic Sans MS;fontSize=16;strokeWidth=1;fillColor=#fad7ac;strokeColor=#b46504;" parent="1" vertex="1">
          <mxGeometry x="-303.5" y="250" width="39" height="30" as="geometry" />
        </mxCell>
        <mxCell id="xEdestO7AOEsHorYzFaQ-45" value="" style="rounded=0;whiteSpace=wrap;html=1;dashed=1;dashPattern=1 1;fontFamily=Comic Sans MS;fontSize=16;strokeWidth=1;fillColor=#bac8d3;strokeColor=#23445d;" parent="1" vertex="1">
          <mxGeometry x="-264.5" y="250" width="39" height="30" as="geometry" />
        </mxCell>
        <mxCell id="xEdestO7AOEsHorYzFaQ-46" value="" style="rounded=0;whiteSpace=wrap;html=1;dashed=1;dashPattern=1 1;fontFamily=Comic Sans MS;fontSize=16;strokeWidth=1;fillColor=#b1ddf0;strokeColor=#10739e;" parent="1" vertex="1">
          <mxGeometry x="-225.5" y="250" width="39" height="30" as="geometry" />
        </mxCell>
        <mxCell id="xEdestO7AOEsHorYzFaQ-47" value="" style="rounded=0;whiteSpace=wrap;html=1;dashed=1;dashPattern=1 1;fontFamily=Comic Sans MS;fontSize=16;strokeWidth=1;" parent="1" vertex="1">
          <mxGeometry x="-186.5" y="250" width="39" height="30" as="geometry" />
        </mxCell>
        <mxCell id="xEdestO7AOEsHorYzFaQ-48" value="" style="rounded=0;whiteSpace=wrap;html=1;dashed=1;dashPattern=1 1;fontFamily=Comic Sans MS;fontSize=16;strokeWidth=1;fillColor=#d0cee2;strokeColor=#56517e;" parent="1" vertex="1">
          <mxGeometry x="280" y="250" width="39" height="30" as="geometry" />
        </mxCell>
        <mxCell id="xEdestO7AOEsHorYzFaQ-49" value="" style="rounded=0;whiteSpace=wrap;html=1;dashed=1;dashPattern=1 1;fontFamily=Comic Sans MS;fontSize=16;strokeWidth=1;fillColor=#fad7ac;strokeColor=#b46504;" parent="1" vertex="1">
          <mxGeometry x="319" y="250" width="39" height="30" as="geometry" />
        </mxCell>
        <mxCell id="xEdestO7AOEsHorYzFaQ-50" value="" style="rounded=0;whiteSpace=wrap;html=1;dashed=1;dashPattern=1 1;fontFamily=Comic Sans MS;fontSize=16;strokeWidth=1;" parent="1" vertex="1">
          <mxGeometry x="358" y="250" width="39" height="30" as="geometry" />
        </mxCell>
        <mxCell id="xEdestO7AOEsHorYzFaQ-51" value="" style="rounded=0;whiteSpace=wrap;html=1;dashed=1;dashPattern=1 1;fontFamily=Comic Sans MS;fontSize=16;strokeWidth=1;" parent="1" vertex="1">
          <mxGeometry x="397" y="250" width="39" height="30" as="geometry" />
        </mxCell>
        <mxCell id="xEdestO7AOEsHorYzFaQ-52" value="" style="rounded=0;whiteSpace=wrap;html=1;dashed=1;dashPattern=1 1;fontFamily=Comic Sans MS;fontSize=16;strokeWidth=1;" parent="1" vertex="1">
          <mxGeometry x="436" y="250" width="39" height="30" as="geometry" />
        </mxCell>
        <mxCell id="xEdestO7AOEsHorYzFaQ-53" value="" style="rounded=0;whiteSpace=wrap;html=1;dashed=1;dashPattern=1 1;fontFamily=Comic Sans MS;fontSize=16;strokeWidth=1;fillColor=#d0cee2;strokeColor=#56517e;" parent="1" vertex="1">
          <mxGeometry x="570" y="250" width="39" height="30" as="geometry" />
        </mxCell>
        <mxCell id="xEdestO7AOEsHorYzFaQ-54" value="" style="rounded=0;whiteSpace=wrap;html=1;dashed=1;dashPattern=1 1;fontFamily=Comic Sans MS;fontSize=16;strokeWidth=1;fillColor=#fad7ac;strokeColor=#b46504;" parent="1" vertex="1">
          <mxGeometry x="609" y="250" width="39" height="30" as="geometry" />
        </mxCell>
        <mxCell id="xEdestO7AOEsHorYzFaQ-55" value="" style="rounded=0;whiteSpace=wrap;html=1;dashed=1;dashPattern=1 1;fontFamily=Comic Sans MS;fontSize=16;strokeWidth=1;" parent="1" vertex="1">
          <mxGeometry x="648" y="250" width="39" height="30" as="geometry" />
        </mxCell>
        <mxCell id="xEdestO7AOEsHorYzFaQ-56" value="" style="rounded=0;whiteSpace=wrap;html=1;dashed=1;dashPattern=1 1;fontFamily=Comic Sans MS;fontSize=16;strokeWidth=1;" parent="1" vertex="1">
          <mxGeometry x="687" y="250" width="39" height="30" as="geometry" />
        </mxCell>
        <mxCell id="xEdestO7AOEsHorYzFaQ-57" value="" style="rounded=0;whiteSpace=wrap;html=1;dashed=1;dashPattern=1 1;fontFamily=Comic Sans MS;fontSize=16;strokeWidth=1;" parent="1" vertex="1">
          <mxGeometry x="726" y="250" width="39" height="30" as="geometry" />
        </mxCell>
        <mxCell id="QShWWnX4GkXOOMJUXcGB-1" value="设备特征数据" style="rounded=0;whiteSpace=wrap;html=1;fillColor=#ffff88;fontSize=16;fontFamily=Comic Sans MS;strokeColor=#36393d;" parent="1" vertex="1">
          <mxGeometry x="-310.5" y="40" width="160" height="60" as="geometry" />
        </mxCell>
        <mxCell id="avs_9zYvvi-18t2LZXdR-1" value="H5 Performace" style="rounded=0;whiteSpace=wrap;html=1;fillColor=#60a917;fontColor=#ffffff;strokeColor=#2D7600;fontSize=16;" vertex="1" parent="1">
          <mxGeometry x="-347.5" y="205" width="120" height="30" as="geometry" />
        </mxCell>
      </root>
    </mxGraphModel>
  </diagram>
</mxfile>
